<?xml version="1.0" encoding="utf-8"?>
<!-- Generator: Adobe Illustrator 22.1.0, SVG Export Plug-In . SVG Version: 6.00 Build 0)  -->
<svg version="1.1" id="Illustration" xmlns="http://www.w3.org/2000/svg" xmlns:xlink="http://www.w3.org/1999/xlink" x="0px"
	 y="0px" viewBox="0 0 2815.8 2800" style="enable-background:new 0 0 2815.8 2800;" xml:space="preserve">
<style type="text/css">
	.st0{fill:url(#SVGID_1_);}
	.st1{opacity:0.3;}
	.st2{fill:#91B3FA;}
	.st3{fill:url(#SVGID_2_);}
	.st4{fill:url(#SVGID_3_);}
	.st5{fill:url(#SVGID_4_);}
	.st6{fill:url(#SVGID_5_);}
	.st7{fill:#BDD0FB;}
	.st8{opacity:0.47;fill:#FFFFFF;enable-background:new    ;}
	.st9{fill:url(#SVGID_6_);}
	.st10{fill:url(#SVGID_7_);}
	.st11{fill:url(#SVGID_8_);}
	.st12{opacity:0.8;fill:#FFFFFF;enable-background:new    ;}
	.st13{fill:url(#SVGID_9_);}
	.st14{fill:#FFFFFF;}
	.st15{fill:url(#SVGID_10_);}
	.st16{fill:url(#SVGID_11_);}
	.st17{fill:url(#SVGID_12_);}
	.st18{fill:url(#SVGID_13_);}
	.st19{fill:url(#SVGID_14_);}
	.st20{fill:url(#SVGID_15_);}
	.st21{fill:url(#SVGID_16_);}
	.st22{fill:url(#SVGID_17_);}
	.st23{fill:url(#SVGID_18_);}
	.st24{fill:url(#SVGID_19_);}
	.st25{fill:url(#SVGID_20_);}
	.st26{fill:url(#SVGID_21_);}
	.st27{fill:url(#SVGID_22_);}
	.st28{fill:url(#SVGID_23_);}
	.st29{fill:url(#SVGID_24_);}
	.st30{fill:url(#SVGID_25_);}
	.st31{fill:url(#SVGID_26_);}
	.st32{fill:#7D97F4;}
	.st33{fill:url(#SVGID_27_);}
	.st34{fill:url(#SVGID_28_);}
	.st35{fill:url(#SVGID_29_);}
	.st36{fill:url(#SVGID_30_);}
	.st37{fill:url(#SVGID_31_);}
	.st38{opacity:0.37;fill:url(#SVGID_32_);enable-background:new    ;}
	.st39{opacity:0.37;fill:url(#SVGID_33_);enable-background:new    ;}
	.st40{fill:url(#SVGID_34_);}
</style>
<g>
	
		<linearGradient id="SVGID_1_" gradientUnits="userSpaceOnUse" x1="3161.667" y1="-812.7512" x2="679.5806" y2="2269.8452" gradientTransform="matrix(1 0 0 -1 0 2800.0066)">
		<stop  offset="0" style="stop-color:#DAE3FE"/>
		<stop  offset="1" style="stop-color:#E9EFFD"/>
	</linearGradient>
	<path class="st0" d="M2478.9,2397.1c-57,60-111,98.7-153.6,129.3c-501,359.5-1093.8,254.7-1219.8,229.1
		c-186-37.8-545.7-110.8-805.7-416.6c-393.4-462.6-332.1-1191.4-27-1672.5c55.8-88,350.6-576.4,949.8-654.7
		c362.6-47.4,785.3,48.2,1091.5,304.7C2956.7,854.7,2910.9,1942.2,2478.9,2397.1z"/>
	<g>
		<g>
			<g class="st1">
				<path class="st2" d="M2331,211.4c-2.1-3.1-1.6-7.3,1.3-9.7c6.3-5.4,13-10.5,19.8-15.4c3.3-2.4,7.9-1.6,10.2,1.7l0.1,0.1
					c2.2,3.3,1.5,7.8-1.8,10.1c-6.5,4.6-12.8,9.5-18.8,14.6c-3.1,2.6-7.7,2.2-10.4-0.9C2331.3,211.9,2331.1,211.7,2331,211.4z
					 M2384.1,175.8c-0.2-0.2-0.3-0.5-0.4-0.7c-1.9-3.6-0.5-8,3.1-9.9c7.4-3.9,15-7.4,22.7-10.6c3.7-1.6,8,0.2,9.6,3.9
					s-0.2,8-3.9,9.6c-7.3,3-14.5,6.4-21.5,10.1C2390.3,179.9,2386.2,178.8,2384.1,175.8z M2443.8,152.7c-0.5-0.7-0.8-1.4-1-2.3
					c-1-3.9,1.3-7.9,5.2-9c8-2.1,16.3-3.9,24.5-5.3c4-0.7,7.8,2,8.5,6s-2,7.8-6,8.5c-7.8,1.3-15.6,3-23.2,5
					C2448.6,156.5,2445.5,155.2,2443.8,152.7z M2507.1,143.5c-0.8-1.1-1.2-2.5-1.3-3.9c-0.1-4.1,3.1-7.4,7.1-7.6
					c8.3-0.3,16.7-0.2,25.1,0.3c4,0.2,7.2,3.7,6.9,7.7c-0.2,4.1-3.7,7.2-7.7,6.9c-7.9-0.4-15.9-0.5-23.8-0.3
					C2510.8,146.8,2508.5,145.5,2507.1,143.5z M2570.9,148.7c-1.1-1.6-1.5-3.5-1.1-5.5c0.8-4,4.6-6.6,8.6-5.8
					c8.1,1.6,16.3,3.6,24.4,5.8c3.9,1.1,6.2,5.2,5.1,9.1c-1.1,3.9-5.2,6.2-9.1,5.1c-7.6-2.2-15.4-4-23.1-5.5
					C2573.6,151.4,2572,150.2,2570.9,148.7z M2632,167.9c-1.4-2-1.7-4.7-0.7-7.1c1.6-3.7,6-5.4,9.7-3.8c7.6,3.4,15.2,7.1,22.5,11.1
					c3.6,1.9,4.9,6.4,2.9,10c-1.9,3.6-6.4,4.9-10,2.9c-6.9-3.8-14.1-7.3-21.3-10.5C2633.8,169.9,2632.8,169,2632,167.9z
					 M2798.2,380.4c-0.6-0.8-1-1.8-1.2-2.9c-1.4-7.8-3.1-15.6-5.1-23.2c-1-3.9,1.3-7.9,5.2-9c3.9-1,7.9,1.3,9,5.2
					c2.1,8.1,3.9,16.3,5.4,24.5c0.7,4-2,7.8-6,8.5C2802.6,384,2799.7,382.7,2798.2,380.4z M2687.3,200.1c-1.7-2.5-1.7-5.9,0.2-8.5
					c2.4-3.3,7-3.9,10.3-1.5c6.7,5,13.2,10.3,19.4,15.8c3,2.7,3.3,7.3,0.6,10.4c-2.7,3-7.3,3.3-10.4,0.6c-5.9-5.2-12.1-10.3-18.4-15
					C2688.3,201.3,2687.7,200.7,2687.3,200.1z M2780.2,319c-0.3-0.4-0.5-0.8-0.7-1.3c-3.1-7.3-6.5-14.5-10.2-21.5
					c-1.9-3.6-0.5-8,3.1-9.9s8-0.5,9.9,3.1c3.9,7.4,7.5,15,10.7,22.7c1.6,3.7-0.2,8-3.9,9.6C2785.8,323,2782.1,321.8,2780.2,319z
					 M2733.9,243.8c-2.1-3.1-1.6-7.3,1.3-9.7c3.1-2.6,7.7-2.3,10.4,0.8c5.4,6.3,10.6,13,15.4,19.8l0.1,0.1c2.2,3.3,1.5,7.8-1.8,10.1
					c-3.3,2.4-7.9,1.6-10.2-1.7c-4.6-6.4-9.5-12.7-14.6-18.8C2734.2,244.2,2734.1,244,2733.9,243.8z"/>
				<path class="st2" d="M2802.4,431.8c-0.8-1.2-1.3-2.6-1.3-4.2c0-3.8,0-7.6-0.1-11.4c-0.1-4.1,3.1-7.4,7.1-7.6
					c4.1-0.1,7.5,3.1,7.6,7.1s0.2,8.1,0.1,12c0,4.1-3.4,7.3-7.4,7.3C2805.9,435,2803.7,433.7,2802.4,431.8z"/>
			</g>
			<g class="st1">
				<path class="st2" d="M2713,637.2c-2-2.9-1.6-7,1-9.5c2.8-2.6,5.5-5.3,8.2-8c2.8-2.9,7.5-3,10.4-0.1c2.9,2.8,3,7.5,0.1,10.4
					c-2.8,2.9-5.7,5.7-8.6,8.5c-2.9,2.8-7.6,2.7-10.4-0.3C2713.5,637.8,2713.3,637.5,2713,637.2z"/>
				<path class="st2" d="M2280.1,591c-1.9-2.8-3.8-5.6-5.6-8.5c-2.2-3.4-1.2-8,2.3-10.1c3.4-2.2,8-1.1,10.1,2.3
					c4.2,6.6,8.7,13.1,13.3,19.3c2.4,3.2,1.8,7.8-1.4,10.3c-3.2,2.4-7.8,1.8-10.3-1.4C2285.6,598.9,2282.8,595,2280.1,591z
					 M2256,548.4c-0.2-0.3-0.4-0.7-0.6-1.1c-3.4-7.5-6.5-15.1-9.3-22.8c-1.4-3.8,0.6-8,4.4-9.4c3.8-1.4,8,0.6,9.4,4.4
					c2.6,7.3,5.6,14.6,8.8,21.7c1.7,3.7,0.1,8-3.6,9.7C2261.8,552.4,2258,551.3,2256,548.4z M2313.9,631.9c-2-2.9-1.7-6.8,0.9-9.3
					c2.9-2.9,7.5-2.9,10.4,0c5.5,5.5,11.3,10.8,17.2,15.8c3.1,2.6,3.5,7.3,0.9,10.4s-7.3,3.5-10.4,0.9c-6.3-5.3-12.4-10.9-18.1-16.7
					C2314.5,632.6,2314.2,632.2,2313.9,631.9z M2236.2,488.5c-0.5-0.8-0.9-1.7-1.1-2.6c-1.7-8-3.1-16.2-4.1-24.3
					c-0.5-4,2.4-7.7,6.4-8.2s7.7,2.4,8.2,6.4c1,7.7,2.3,15.5,3.9,23.1c0.8,4-1.7,7.9-5.7,8.7
					C2240.8,492.2,2237.9,490.9,2236.2,488.5z M2363.1,671.2c-1.6-2.3-1.8-5.5-0.1-8.1c2.2-3.4,6.7-4.4,10.1-2.3
					c6.6,4.1,13.4,8.1,20.3,11.7c3.6,1.9,5,6.3,3.1,9.9s-6.3,5-9.9,3.1c-7.3-3.8-14.5-7.9-21.4-12.3
					C2364.3,672.7,2363.6,672,2363.1,671.2z M2419.6,698.8c-1.3-1.9-1.7-4.3-0.9-6.6c1.4-3.8,5.6-5.8,9.4-4.4c7.3,2.6,14.8,5,22.4,7
					c3.9,1,6.3,5.1,5.2,9c-1,3.9-5.1,6.3-9,5.2c-7.9-2.1-15.8-4.6-23.5-7.3C2421.7,701,2420.5,700,2419.6,698.8z M2480.9,713.4
					c-1-1.4-1.5-3.2-1.2-5c0.5-4,4.2-6.9,8.2-6.4c7.7,1,15.6,1.6,23.3,1.9c4.1,0.2,7.2,3.6,7,7.6c-0.2,4.1-3.6,7.2-7.6,7
					c-8.2-0.3-16.4-1-24.6-2C2483.9,716.3,2482,715.1,2480.9,713.4z M2543.9,714.3c-0.7-1-1.1-2.2-1.2-3.4c-0.4-4,2.6-7.6,6.6-8
					c7.7-0.7,15.6-1.8,23.2-3.2c4-0.7,7.8,1.9,8.5,5.9s-1.9,7.8-5.9,8.5c-8,1.5-16.3,2.6-24.4,3.4
					C2547.9,717.8,2545.3,716.5,2543.9,714.3z M2605.5,701.4c-0.4-0.6-0.7-1.2-0.9-1.8c-1.3-3.9,0.8-8,4.7-9.3
					c7.4-2.4,14.7-5.2,21.9-8.3c3.7-1.6,8.1,0.2,9.6,3.9c1.6,3.7-0.1,8-3.9,9.6c-7.5,3.2-15.3,6.1-23.1,8.7
					C2610.7,705.2,2607.3,704,2605.5,701.4z M2662.8,675.2c-0.1-0.1-0.2-0.3-0.2-0.4c-2.1-3.5-0.9-8,2.5-10.1
					c4.9-2.9,9.8-6.1,14.5-9.3c1.7-1.2,3.4-2.4,5.1-3.5c3.3-2.4,7.9-1.6,10.2,1.7c2.5,3.3,1.6,7.9-1.7,10.2
					c-1.8,1.3-3.5,2.5-5.3,3.7c-5,3.4-10.1,6.7-15.3,9.8C2669.3,679.4,2665,678.4,2662.8,675.2z"/>
				<path class="st2" d="M2230.1,425.7c-0.8-1.2-1.3-2.7-1.3-4.2c0.1-4,0.2-8,0.4-12c0.2-4.1,3.7-7.2,7.7-6.9
					c4.1,0.2,7.2,3.7,6.9,7.7c-0.2,3.8-0.3,7.7-0.4,11.4c-0.1,4.1-3.4,7.3-7.4,7.2C2233.6,428.8,2231.5,427.6,2230.1,425.7z"/>
			</g>
			<g>
				<path class="st2" d="M2306.1,385.8c-0.4,1.4,0.1,2.9,1.3,3.8l34,24.3c-1.1,19.5,0.9,39.3,6.2,58.7l-28.2,30.8
					c-1,1.1-1.2,2.7-0.5,4l23.9,44c0.7,1.3,2.1,2,3.6,1.7l41.2-6.9c13.4,15,28.9,27.4,45.9,37.1l1.9,41.7c0.1,1.5,1.1,2.7,2.5,3.1
					l48.1,14.2c1.4,0.4,2.9-0.1,3.8-1.3l24.3-34c19.5,1.1,39.3-0.9,58.7-6.2l30.8,28.2c1.1,1,2.7,1.2,4,0.5l44-23.9
					c1.3-0.7,2-2.1,1.7-3.6l-6.9-41.2c15-13.4,27.4-28.9,37.1-45.9l41.8-1.9c1.5-0.1,2.7-1.1,3.1-2.5l14.2-48.1
					c0.4-1.4-0.1-2.9-1.3-3.8l-34-24.3c1.1-19.5-0.9-39.3-6.2-58.7l28.2-30.8c1-1.1,1.2-2.7,0.5-4l-23.9-44c-0.7-1.3-2.1-2-3.6-1.7
					l-41.2,6.9c-13.4-15-28.9-27.4-45.9-37.1l-1.9-41.7c-0.1-1.5-1.1-2.7-2.5-3.1l-48.1-14.2c-1.4-0.4-2.9,0.1-3.8,1.3l-24.3,34
					c-19.5-1.1-39.3,0.9-58.7,6.2l-30.8-28.2c-1.1-1-2.7-1.2-4-0.5l-44,23.9c-1.3,0.7-2,2.1-1.7,3.6l6.9,41.2
					c-15,13.4-27.4,28.9-37.1,45.9l-41.7,1.9c-1.5,0.1-2.7,1.1-3.1,2.5L2306.1,385.8z"/>
				
					<linearGradient id="SVGID_2_" gradientUnits="userSpaceOnUse" x1="2473.8621" y1="2375.7534" x2="2574.613" y2="2375.7534" gradientTransform="matrix(1 0 0 -1 0 2800.0066)">
					<stop  offset="0" style="stop-color:#DAE3FE"/>
					<stop  offset="1" style="stop-color:#E9EFFD"/>
				</linearGradient>
				<path class="st3" d="M2482.6,452.6c-13.8-20.3-11.1-48.3,7.5-65.4c20.4-18.8,52.4-17.5,71.2,2.9c9.1,9.9,13.9,22.7,13.3,36.2
					c-0.5,13.4-6.3,25.9-16.2,35c-20.4,18.8-52.4,17.5-71.2-2.9C2485.6,456.6,2484,454.6,2482.6,452.6z M2556.3,402.5
					c-1.1-1.6-2.3-3.1-3.6-4.5c-14.4-15.7-38.9-16.6-54.6-2.2c-15.7,14.4-16.7,38.9-2.2,54.6c14.4,15.7,38.9,16.6,54.6,2.2
					c7.6-7,12-16.5,12.4-26.8C2563.2,417.4,2560.9,409.4,2556.3,402.5z"/>
				
					<linearGradient id="SVGID_3_" gradientUnits="userSpaceOnUse" x1="2406.2261" y1="2375.6218" x2="2649.4294" y2="2375.6218" gradientTransform="matrix(1 0 0 -1 0 2800.0066)">
					<stop  offset="0" style="stop-color:#DAE3FE"/>
					<stop  offset="1" style="stop-color:#E9EFFD"/>
				</linearGradient>
				<path class="st4" d="M2423.1,494.5c-2.4-3.5-4.6-7.1-6.6-10.9l0,0c-0.6-1.2-1.3-2.4-1.9-3.6c-3-5.9-5.5-12.1-7.5-18.4
					c0-0.1-0.1-0.2-0.1-0.3c-0.1-0.2-0.2-0.5-0.2-0.7c-0.1-0.5-0.3-1-0.4-1.4c-0.4-1.3,0.1-2.6,1.2-3.3c0.2-0.2,0.5-0.3,0.8-0.4
					c1.6-0.5,3.2,0.4,3.6,2c2.4,8,5.6,15.8,9.6,23.2c20,36.8,56.7,58.7,95.7,61.4c21.6,1.5,43.9-2.9,64.4-14c3.6-1.9,7-4.1,10.4-6.3
					c22.4-15.3,38.7-37.6,46.5-63.9c8.9-30.2,5.6-62.1-9.5-89.8c-31.1-57.2-102.9-78.4-160-47.4c-3.5,1.9-6.9,4-10.2,6.2
					c-14.3,9.7-26.2,22.5-35,37.4c-0.2,0.4-0.5,0.7-0.9,0.9c-0.9,0.6-2.1,0.7-3.1,0.1c-1.4-0.8-1.9-2.6-1-4
					c9.2-15.6,21.8-29,36.8-39.2c3.5-2.4,7-4.5,10.7-6.6c60-32.6,135.4-10.3,168,49.7c15.8,29.1,19.3,62.6,9.9,94.3
					c-8.2,27.6-25.3,51-48.8,67.1c-3.5,2.4-7.1,4.6-10.9,6.6c-29.1,15.8-62.6,19.3-94.3,9.9C2462.5,535.1,2439.1,518,2423.1,494.5z"
					/>
			</g>
		</g>
		<g>
			<g class="st1">
				<path class="st2" d="M2029.8,113.4c-1.1-1.6-1.1-3.8,0.2-5.4c2.4-3,5-5.9,7.6-8.8c1.7-1.8,4.6-2,6.4-0.2
					c1.8,1.7,1.9,4.6,0.2,6.4c-2.5,2.7-4.9,5.5-7.3,8.3c-1.6,1.9-4.4,2.2-6.4,0.6C2030.3,114.1,2030,113.8,2029.8,113.4z"/>
				<path class="st2" d="M2054.3,88.6c-1.3-1.9-1-4.5,0.8-6c5.1-4.3,10.4-8.3,15.9-12.1c1.2-0.8,2.3-1.6,3.5-2.3
					c2.1-1.4,4.9-0.6,6.3,1.3c1.4,2.1,0.8,4.9-1.3,6.3c-1.1,0.7-2.2,1.5-3.3,2.2c-5.2,3.6-10.3,7.4-15.2,11.5
					c-1.9,1.6-4.8,1.4-6.4-0.5C2054.5,88.8,2054.4,88.7,2054.3,88.6z M2093.8,62.9c-0.1-0.2-0.2-0.4-0.3-0.6c-1.1-2.3-0.2-5,2.1-6.1
					c7.2-3.5,14.7-6.7,22.3-9.3c2.4-0.8,5,0.5,5.8,2.8c0.8,2.4-0.4,5-2.8,5.8c-7.2,2.5-14.4,5.5-21.3,8.9
					C2097.5,65.4,2095,64.7,2093.8,62.9z M2138.3,47.5c-0.3-0.5-0.6-1-0.7-1.6c-0.5-2.5,1.1-4.9,3.5-5.4c7.9-1.7,15.9-2.8,23.9-3.5
					c2.5-0.2,4.7,1.6,4.9,4.1s-1.6,4.7-4.1,4.9c-7.6,0.6-15.3,1.8-22.8,3.4C2141.1,49.8,2139.3,49,2138.3,47.5z M2185.2,43.5
					c-0.5-0.8-0.8-1.7-0.8-2.7c0.1-2.5,2.2-4.5,4.7-4.4c8,0.3,16.1,1.1,24,2.4c2.5,0.4,4.1,2.7,3.7,5.2c-0.4,2.5-2.7,4.1-5.2,3.7
					c-7.5-1.2-15.3-2-22.9-2.3C2187.3,45.4,2186,44.7,2185.2,43.5z M2231.7,51.2c-0.7-1.1-1-2.5-0.6-3.8c0.7-2.4,3.2-3.8,5.6-3.1
					c7.7,2.3,15.3,5,22.7,8.2c2.3,1,3.4,3.7,2.4,6c-1,2.3-3.7,3.4-6,2.4c-7-3-14.3-5.7-21.7-7.8C2233.2,52.6,2232.3,52,2231.7,51.2z
					 M2275,69.8c-1-1.4-1.1-3.3-0.2-4.9c1.3-2.2,4-2.9,6.2-1.6c6.9,4.1,13.7,8.6,20,13.5c2,1.5,2.4,4.4,0.8,6.4
					c-1.5,2-4.4,2.4-6.4,0.8c-6.1-4.7-12.5-9-19.1-12.9C2275.8,70.8,2275.3,70.4,2275,69.8z M2312.3,98.5c-1.2-1.8-1-4.2,0.5-5.7
					c1.8-1.8,4.6-1.8,6.4,0c5.7,5.6,11.1,11.7,16.1,18c1.5,2,1.2,4.8-0.8,6.4c-2,1.6-4.8,1.2-6.4-0.7c-4.8-6-9.9-11.8-15.4-17.2
					C2312.7,99,2312.5,98.7,2312.3,98.5z M2352.5,156.4c-0.1-0.2-0.3-0.4-0.4-0.7c-2.7-6-5.8-12-9.2-17.8c-0.5-0.9-1-1.7-1.5-2.6
					c-1.3-2.1-0.6-4.9,1.5-6.2s5-0.7,6.2,1.5c0.5,0.9,1.1,1.8,1.6,2.7c3.5,6,6.8,12.3,9.6,18.6c1,2.3,0,5-2.3,6
					C2356.1,158.9,2353.7,158.2,2352.5,156.4z"/>
			</g>
			<g class="st1">
				<path class="st2" d="M2021.2,344.9c-1.4-2-0.9-4.8,1.1-6.3c2-1.4,4.9-0.9,6.3,1.1c4.3,6.2,9.1,12.1,14.1,17.7
					c1.6,1.9,1.5,4.7-0.3,6.4c-1.9,1.7-4.7,1.5-6.4-0.3C2030.8,357.7,2025.8,351.4,2021.2,344.9
					C2021.2,345,2021.2,344.9,2021.2,344.9z M2009.1,325.1c-0.1-0.1-0.2-0.3-0.3-0.4c-3.7-7-7.1-14.2-9.9-21.6
					c-0.9-2.3,0.2-5,2.6-5.9c2.3-0.9,5,0.3,5.9,2.6c2.7,7,5.9,13.9,9.5,20.6c1.2,2.2,0.4,5-1.9,6.1
					C2012.9,327.7,2010.3,327,2009.1,325.1z M2052.2,379.4c-1.1-1.7-1.1-3.9,0.3-5.5c1.6-1.9,4.5-2.1,6.4-0.4
					c5.7,4.9,11.7,9.6,18,13.8c2.1,1.4,2.6,4.2,1.2,6.3c-1.4,2.1-4.2,2.6-6.3,1.2c-6.5-4.4-12.9-9.3-18.8-14.5
					C2052.7,380,2052.4,379.7,2052.2,379.4z M1992.3,281.9c-0.3-0.4-0.5-0.9-0.6-1.4c-1.9-7.7-3.4-15.5-4.4-23.4
					c-0.3-2.5,1.4-4.8,3.9-5.1s4.8,1.4,5.1,3.9c1,7.5,2.4,15,4.2,22.3c0.6,2.4-0.9,4.9-3.3,5.5
					C1995.2,284.3,1993.3,283.5,1992.3,281.9z M2090.6,405.3c-0.9-1.3-1.1-3.1-0.3-4.6c1.1-2.2,3.9-3.1,6.1-2
					c6.7,3.4,13.7,6.5,20.8,9.1c2.4,0.9,3.6,3.5,2.7,5.8c-0.9,2.4-3.5,3.6-5.8,2.7c-7.4-2.7-14.7-5.9-21.8-9.5
					C2091.6,406.4,2091,405.9,2090.6,405.3z M2134.1,421.2c-0.7-1-1-2.3-0.7-3.6c0.6-2.4,3-4,5.5-3.4c7.3,1.7,14.9,3,22.3,3.8
					c2.5,0.3,4.3,2.5,4,5s-2.5,4.3-5,4c-7.8-0.9-15.7-2.2-23.4-4C2135.7,422.8,2134.7,422.1,2134.1,421.2z M2180.2,426.3
					c-0.5-0.7-0.8-1.6-0.8-2.5c0-2.5,2-4.6,4.5-4.6c7.5-0.1,15.2-0.6,22.6-1.6c2.5-0.3,4.8,1.4,5.1,3.9s-1.4,4.8-3.9,5.1
					c-7.8,1-15.8,1.6-23.7,1.7C2182.4,428.3,2181,427.5,2180.2,426.3z"/>
				<path class="st2" d="M1986.4,235.7c-0.5-0.7-0.8-1.6-0.8-2.5c0-3.9,0.1-7.8,0.3-11.6c0.1-2.5,2.3-4.4,4.8-4.3
					c2.5,0.1,4.4,2.3,4.3,4.8c-0.2,3.6-0.3,7.4-0.3,11.1c0,2.5-2,4.5-4.5,4.6C1988.6,237.7,1987.2,237,1986.4,235.7z"/>
			</g>
			<g>
				<path class="st2" d="M2036.9,205.8c-0.3,0.9,0.1,2,0.9,2.5l22.8,16.2c-0.8,13,0.6,26.3,4.1,39.3l-18.9,20.6
					c-0.7,0.7-0.8,1.8-0.3,2.6l16,29.5c0.5,0.9,1.4,1.3,2.4,1.2l27.6-4.6c8.9,10,19.3,18.4,30.7,24.8l1.2,27.9c0,1,0.7,1.8,1.6,2.1
					l32.2,9.5c0.9,0.3,2-0.1,2.5-0.9l16.2-22.8c13,0.8,26.3-0.6,39.3-4.1l20.6,18.9c0.7,0.7,1.8,0.8,2.6,0.3l29.5-16
					c0.9-0.5,1.3-1.4,1.2-2.4l-4.6-27.6c10-8.9,18.4-19.3,24.8-30.7l27.9-1.2c1,0,1.8-0.7,2.1-1.6l9.5-32.2c0.3-0.9-0.1-2-0.9-2.5
					l-22.8-16.2c0.8-13-0.6-26.3-4.1-39.3l18.9-20.6c0.7-0.7,0.8-1.8,0.3-2.6l-16-29.5c-0.5-0.9-1.4-1.3-2.4-1.2l-27.6,4.6
					c-8.9-10-19.3-18.4-30.7-24.8l-1.2-27.9c0-1-0.7-1.8-1.6-2.1l-32.2-9.5c-0.9-0.3-2,0.1-2.5,0.9l-16.2,22.8
					c-13-0.8-26.3,0.6-39.3,4.1l-20.6-18.9c-0.7-0.7-1.8-0.8-2.6-0.3l-29.5,16c-0.9,0.5-1.3,1.4-1.2,2.4l4.6,27.6
					c-10,8.9-18.4,19.3-24.8,30.7l-27.9,1.2c-1,0-1.8,0.7-2.1,1.6L2036.9,205.8z"/>
				
					<linearGradient id="SVGID_4_" gradientUnits="userSpaceOnUse" x1="2148.5347" y1="2568.4148" x2="2217.105" y2="2568.4148" gradientTransform="matrix(1 0 0 -1 0 2800.0066)">
					<stop  offset="0" style="stop-color:#DAE3FE"/>
					<stop  offset="1" style="stop-color:#E9EFFD"/>
				</linearGradient>
				<path class="st5" d="M2154.5,250.8c-4.1-6-6.2-13.2-5.9-20.7c0.4-9.2,4.3-17.6,11-23.8c13.9-12.8,35.7-11.9,48.5,2
					c12.8,14,11.9,35.7-2,48.5c-6.7,6.2-15.5,9.4-24.7,9.1c-9.2-0.4-17.6-4.3-23.8-11C2156.5,253.5,2155.5,252.2,2154.5,250.8z
					 M2203.8,217.3c-0.7-1-1.5-2-2.3-2.9c-9.4-10.2-25.4-10.9-35.7-1.4c-5,4.6-7.8,10.8-8.1,17.5s2.1,13.2,6.7,18.1l0,0
					c4.6,5,10.8,7.8,17.5,8.1s13.2-2.1,18.1-6.7C2209.4,241.5,2210.7,227.5,2203.8,217.3z"/>
				
					<linearGradient id="SVGID_5_" gradientUnits="userSpaceOnUse" x1="2101.3638" y1="2568.4412" x2="2269.0684" y2="2568.4412" gradientTransform="matrix(1 0 0 -1 0 2800.0066)">
					<stop  offset="0" style="stop-color:#DAE3FE"/>
					<stop  offset="1" style="stop-color:#E9EFFD"/>
				</linearGradient>
				<path class="st6" d="M2113,279.9c-1.6-2.4-3.1-4.8-4.5-7.4c-2.8-5.1-5-10.5-6.7-16.1c-0.1-0.3-0.1-0.5-0.2-0.8
					c-0.6-1.9,0.2-3.9,1.8-5c0.4-0.3,0.8-0.5,1.3-0.6c2.4-0.7,4.9,0.7,5.6,3.1c1.5,5.2,3.6,10.3,6.2,15l0,0c0.1,0.3,0.3,0.5,0.4,0.8
					c6.3,11.2,15.1,20.5,25.7,27.2c5.7,3.6,12,6.5,18.7,8.6c0.1,0,0.1,0,0.2,0c0.2,0,0.3,0.1,0.5,0.1c19.6,5.8,40.2,3.6,58.2-6.1
					c2.3-1.3,4.6-2.6,6.7-4.1c14.5-9.9,25-24.3,30.1-41.4c5.8-19.6,3.6-40.2-6.1-58.1c-9.7-17.9-25.9-31-45.5-36.8
					s-40.2-3.6-58.2,6.1c-2.3,1.2-4.5,2.6-6.6,4c-9.2,6.3-17,14.6-22.7,24.2c-0.4,0.6-0.8,1.1-1.4,1.4c-1.4,1-3.3,1.1-4.9,0.2
					c-2.2-1.3-2.9-4.1-1.6-6.2c6.4-10.8,15-20,25.4-27.1c2.4-1.6,4.9-3.1,7.4-4.5c20.1-10.9,43.2-13.3,65.1-6.9
					c21.9,6.5,40,21.1,50.8,41.2c10.9,20.1,13.3,43.2,6.9,65.1c-5.6,19.1-17.4,35.2-33.6,46.3c-2.4,1.6-4.9,3.2-7.5,4.6
					C2185.6,327.9,2137.4,315.7,2113,279.9z"/>
			</g>
		</g>
	</g>
	<g>
		<polygon class="st7" points="1928.1,561.4 1060.1,473.6 190.7,556.3 174.7,2480.7 1043.8,2440.8 1912,2501.3 2780.2,2428.5 
			2796.1,524.4 		"/>
		<polygon class="st2" points="1062.8,2397.1 237,2434.9 252.3,609.4 1078.3,531 		"/>
		<polygon class="st2" points="1887.7,2454.5 1062.8,2397.1 1078.3,531 1903,614.2 		"/>
		<polygon class="st2" points="2712.6,2385.4 1887.7,2454.5 1903,614.2 2727.7,579.1 		"/>
		
			<rect x="127.9" y="1454.9" transform="matrix(8.919644e-03 -1 1 8.919644e-03 -412.3651 2512.4006)" class="st8" width="1866.8" height="18.7"/>
		<g>
			<path class="st7" d="M1667.8,1701.9c-3.3,26-6,52.2-8.1,78.3c-0.5,6.2,0.7,14.7,6.7,15.3c3.6,0.4,6.7-2.7,9.1-5.5
				c10.4-11.9,21.5-27.2,16.5-42.4c-1.9-5.6-5.9-10.4-7.4-16.1c-2.3-8.6,1.3-17.8,0.4-26.8c-0.9-8.9-11.6-17.7-17.6-11.2
				L1667.8,1701.9z"/>
			<path class="st7" d="M999.5,845.4c-40.9-21.6-66.5-24.5-110.5-19.7c-41.5,4.5-69.5,25.4-98,55.1c-6.5,6.8-12.8,14.1-21.2,18
				c-35.2,16.3-79.8,13-115.8,29c-42.8,19.1-54.9,78.5-93.9,104.7c-22.6,15.2-51.1,17.1-76,28c-36.8,16.1-53.7,49.5-74.6,82.1
				c-12.8,20-60.1,54.3-57.5,77.7c0.5,4.3,2.3,8.3,4.5,11.9c13,21,32.5,23.2,53,29.2c27.1,7.9,43.5,20.1,67.5,37.1
				c25,17.7,59.1,33.2,61.2,64.4c1,14.5-5.8,28.2-9.1,42.4c-14.9,63.8,40.5,121.1,94.5,155.5c54,34.5,117.6,68.6,134.8,131.7
				c1.6,5.8,2.9,12,7.1,16.1c15.8,15.5,27.6-19.6,32.3-30.7c3.1-7.2,0.3-15.8-4.5-21.9c-4.8-6.1-11.4-10.3-17.3-15.3
				c-19.9-16.6-32.9-41.9-34.9-68.3c-0.3-3.4-0.3-7,1.6-9.8c9.4-14.2,32.7-20,44.1-37.1c16.4-24.5,20.1-47.8,22.9-77
				c10.2-107,107.7-69.1,168.8-116.6c11.4-8.8,19.9-22.8,21.9-37c1.1-7.9,0.2-15.8-3.4-23c-6-12.2-18.3-20.1-31.1-23.6
				c-12.8-3.5-26.3-3.3-39.5-3c-12.3,0.3-24.6,0.5-36.9,0.8c-3.6,0.1-7.4,0.2-10.7,1.7c-4.7,2.1-7.9,6.7-10.5,11.3
				c-8.2,14.9-12.3,32.2-11.6,49.3c-16.2,5.7-32-9.8-40.8-24.9c-10.2-17.5-17.6-36.8-21.6-56.8c-1.6-7.7-2.5-16.3,1.3-23.1
				c2.1-3.8,5.5-6.6,8.9-9.1c13.8-10.3,29.7-18,46.6-19.9c28.8-3.2,56.9,11.1,80.5,28.5c22.7,16.7,59.7,36.8,85.2,12.7
				c13.2-12.4,13.4-35,4.2-50.8c-14.9-25.7-52.8-39.1-77.6-52c-11.6-6.1-19-18.5-22.3-31.5s-3-26.6-2.6-40
				c34.2-14,74.4-11.2,106.6,7.2c4.6,2.6,9.4,6.3,10,11.7c0.6,5.5-3.7,10.1-7,14.5c-29.6,38.7-3,70,31.8,91.8
				c0.8-98.2,1.1-196.9,1.1-295.2C1039.9,864.6,1019.3,855.9,999.5,845.4z"/>
			<path class="st7" d="M1308.9,928.6c-4.8-6.4-14.2-4.8-22.1-4.8c-25,0.2-44.9-21.6-68.9-28.8c-12.6-3.7-25.9-3.3-39-3.5
				c-40-0.6-79.8-7.4-117.9-20c-0.1,98.3-0.3,197-1.1,295.2c21.7,13.6,46.6,23.6,63.1,29.4c17.5,6.2,34.2,16.4,52.9,12.5
				c17.4-3.5,33-23.1,51-28.1c13-3.6,26.9-1.7,40.2-4.5c13.2-2.7,27-13,26.5-26.9c-0.4-11.4-10.1-19.9-19.7-25.4
				c0,1.1-16.6-12.5-18.2-15.5c-14.5-29.1,6.6-54.7,14.7-79.8c11.7-36.3-5.6-57.7,30.3-77.8C1308.2,946.3,1314.2,935.7,1308.9,928.6
				z"/>
			<path class="st7" d="M823.1,1849c6.3,13.2,11.4,25.6,12.8,36.2c5.9,46.1-32.4,102.8-48.8,144.9c-4.5,11.7-9.2,24.2-7.1,36.6
				c0.9,5.2,2.9,10.2,4.9,15.1c14.8,36.1,43.9,68.8,69.8,96.6c8.8-23.9,8.2-81.2,5.8-106.6c-0.8-8.4-2.2-17.2,0.8-25
				c9.6-25.1,40.7-59.7,62.2-74.7c21.1-14.7,48.8-26.5,54.2-52.2c2.1-9.9,0.3-20.4,3.4-30c1.9-5.7,5.3-10.8,8.1-16.1
				c13.6-26.2,21.4-76.8-5.9-95.4c-30.5-20.8-73.7,9.7-99.8-24.3c-3.9-5.1-6.9-11.1-11.4-15.7c-8.3-8.6-21.1-11.3-32.7-9.3
				C762.2,1742.5,800.1,1800.7,823.1,1849z"/>
			<path class="st7" d="M1307.4,1468.1c24.4,16.1,66.4-19.2,81.9-60.6c1.9-5.2,3.7-10.6,7.3-14.7c7.2-8.5,19.6-9.6,30.4-8
				s21.6,5.2,32.4,3.7c15.5-2.1,28.4-14.4,35.6-28.8s9.9-30.7,12.4-46.7c11.5-2.9,23.9-1.8,34.7,3.2c8.4,3.8,16.6,12.3,14.3,21.4
				c-1.1,4.2-4.2,7.5-7.1,10.6c-9.1,9.8-17.6,20.1-25.4,31c-4.8,6.7-9.5,15.5-5.9,23c9.8,20.4,27.8,9.8,22.7,39
				c-6.5,36.6-54.5,51.5-27.1,95.2c10,16,28.3,25.6,46.7,26.4c13.2,0.6,29.5-6.5,29.6-20.1c0.1-4.1-1.4-8.2-0.2-12.1
				c1.6-5,7.1-7.5,12.1-8.3c16.5-2.6,32.4,6,47.7,13c4.6,2.1,10.1,4.1,14.5,1.5c14.2-8.4,7.6-15.4,26.9-17.3
				c16.5-1.6,35.8,11.6,45.2,24.6c2.2,3.1,4.3,7.2,2.9,10.8c-1.2,3.1-4.7,4.8-6.4,7.6c-2.8,4.7,0,11.3,4.5,14.4s10.1,3.8,15.4,4.9
				c24.8,5.3,25.4,29.7,42.9,41.9c14.2,9.9,50.5,11.9,47.3-16.6c-1.2-10.4-11.3-19-9.6-29.3c1.5-9.1,11.4-14,20.2-15.1
				c8.9-1.2,18.3-0.3,26.2-4.6c5.3-2.8,9.3-7.7,14.1-11.3c29.6-22.3,99.7-3.4,122.4,21.6c21.2,23.3,23.6,63.6,50.9,78.7
				c-3.2-31-18.3-60.6-41.3-80.7c-4.2-3.7-8.9-7.3-11.1-12.6c-1.9-4.4-1.8-9.4-1.5-14.2c1.2-24.6,5.9-47.4,12.4-70.4
				c-0.8,2.7,17.3-47.1,4.3-37.7c23.3-16.9,74.1-44.6,103.3-42.8c15.2,0.9,30.2,10,36.6,24.3c6.4,14.3,2.5,33.3-10,42.2
				c-12,8.5-28.7,6.9-41,15.1c-11.8,7.9-16.8,25-11.3,38.4c7.7-10.9,19.2-18.8,32-21.8c17.1-4,36.5,0.2,51.2-9.6
				c10.9-7.2,16.6-21,16.7-34.4c0.1-13.4-4.6-26.3-11-37.9c-4.6-8.4-10.2-16.4-12.7-25.8c-4-14.9,0.7-31.2,9.1-44.1
				c31.1-47.8,88.6-68.5,141.8-50.9c3.5,1.2,7.3,2.7,9.2,6.1c2.7,4.8,0.1,11,1.2,16.5c1.8,8.6,14.5,11.9,19.9,5.1
				c3.8-4.7,3.5-11.4,5-17.3c3.7-15.3,18.8-24.7,33.5-29.1c18-5.3,66.2-30,71.1,2.6c0.4,2.9,0.3,5.9,1.5,8.5
				c3.4,7.4,14.6,6.3,20,0.3c11.1-12.3,13-32.4,23.7-46.2c9.5-12.1,23.5-19.4,31.4-33c19.7-33.6,4.7-77.5-29.5-93.7
				c-32.8-15.6-70.9-8.7-106.4-2.1c-24.4,4.5-108.3,22-114.3-19c-0.5-3.4-0.4-6.9-2-9.9c-1.9-3.7-6-5.6-8.5-9
				c-3.2-4.2-3.3-10.1-5-15.1c-6.2-18.4-29.5-21.8-48.3-22c1.9-11.4,2.9-25.3-5.9-32.4c-5-4-11.8-4.4-18.1-4.7
				c-16.4-0.7-56,5.4-69.6-4.6c-18-13.2-5.6-35.6-13.5-53.7c-8.4-19.3-39.4-22-42.9-42.8c-0.7-4.5,0.1-9.1-0.5-13.7
				c-1.3-11.1-10-19.4-18.1-26.7c-14.8-13.2-31.5-27.2-51-26.7c-3.7,3-0.4,9.3,3.8,11.6c4.1,2.3,9.4,3.4,11.5,7.8
				c4,8.3-7.5,15.1-16.3,16.8c-0.4,12.1,11.4,20.2,20.5,27.8c15.4,12.9,26.3,31.4,30.4,51.5c-31,5.8-62.8,7.1-94.2,4
				c-37.8-3.7-62.1,58.3-106.9,41.1c-6.6-2.5-12.5-7.1-19.5-8.5c-17.4-3.4-31.5,13.7-47.2,22.3c-23.9,13.1-53.1,6.3-78.7-2.7
				c-30.6-10.8-67.7-26.3-98.5-7.7c-11.5,7-20.7,17.8-32.9,23.4c-25.6,11.7-54.6-2.7-82.5-5.4c-68.8-6.8-110.1,62.8-132.5,120.7
				c-3.4,8.8-6.4,18-6,27.5s5.1,19.3,13.4,23.1c12.4,5.8,26.7-3.4,34.8-14.7c8.1-11.3,13-25.1,22.9-34.7s28-12.7,35.8-1.2
				c3.8,5.6,4,13,4,19.9c0,13.1,0.1,26.2,0.1,39.3c0,7.2,0,14.7-2.8,21.3c-4.7,11-16,17.1-26.5,22.3c-22.8,11.4-45.5,22.8-68.3,34.2
				c-7.7,3.8-15.5,7.8-22,13.4c-29.7,26-9.8,61.9-32.7,86.9c-9.3,10.1-24.6,13.1-32.2,24.6c-5.6,8.5-5.6,19.5-5.3,29.8
				C1290,1445.3,1297.2,1461.3,1307.4,1468.1z"/>
			<path class="st7" d="M2100.8,1686.2c-9.2,17.2-7.9,39.8-28.8,49.3c-13.9,6.3-31.6,3.4-42.9,13.9c-12.9,11.9-9.5,33.1-7,50.7
				c0.4,3.2,0.8,6.5-0.4,9.5c-3.3,7.8-15.2,7.6-19.3,14.9c-3.5,6.3,0.8,14.3,6.1,19.2c15.9,14.9,41.8,16.8,59.6,4.5
				c4.7-3.3,9.9-7.7,15.4-6.3c6.5,1.6,8.6,9.8,10.4,16.4c3.7,14.1,11.1,27.7,22.8,36.1c36.7,26.2,88.3-5.7,129.1,31.3
				c5,4.5,9.8,10,11.2,16.7c1.6,7.3-0.8,15.6,3.2,21.8c4.9,7.8,17.1,6.7,23.8,0.4s9.3-15.8,12.1-24.6s6.4-18.2,14.1-23.2
				c12.9-8.3,27.5-5.2,34.7-22.1c8.9-21.7-17.6-39.6-9.2-59.3c3.8-8.8,9.8-18.4,6-27.2c-1.9-4.5-6-7.5-9.3-10.9
				c-15.7-16.2-18.4-31.5-39.3-41.4c-13.4-6.3-41,1.9-46.5-21.2c-1.4-6,0.6-13.5-3.9-17.6c-2.5-2.3-6.2-2.5-9.6-2.5
				c-23.4,0.1-51.3,0.4-64.6-19.5c-14.7-22-16.5-37.9-46.4-26.9C2110.9,1672,2104.9,1678.6,2100.8,1686.2z"/>
			<path class="st7" d="M1402.9,1565.2c-4.9,7-7.6,15.4-12.8,22.2c-14.5,19.1-20.8,2.2-37.1,8.7c-5.6,2.2-10.6,6.2-16.5,7.6
				c-11.9,2.8-23.7-5.4-36-5.4c-47.1-0.2-22.4,78.1,0.4,93.1c4.2,2.8,9.5,2.8,14.5,2.8c15.5-0.2,31.1-0.3,46.6-0.5
				c4.4,0,9.2,0,12.8,2.6c11.2,8,0.5,27.7,7.3,40c4.6,8.4,15.4,10,24.6,11.7c19.5,3.7,23.7,25.6,35.6,39.1
				c15.3,17.4,29.9,24.4,38.6,49.6c5.1,15,6.9,31.2,13.7,45.5c13.9,29.3,50,45.2,80,35.1c30-10.1,50.3-44.8,44.9-77
				c-3.1-18.8-13.6-35.3-20.9-52.8c-14.7-35.5-4.8-78.7,36-85.5c10.3-1.7,23.3-2.3,27.2-12.3c5.5-14.4-15.8-31.3-7-43.9
				c3.2-4.5,9.3-6.1,12.1-10.9c3.8-6.4-0.5-14.7-5.8-19.9c-5.2-5.2-11.8-9.7-14-16.9c-12.2-40.4-52.2-15.2-78.9-9.8
				c-23.8,4.7-37.4,1.7-57.2-10.2C1480.4,1559.5,1433.9,1520.6,1402.9,1565.2z"/>
			<path class="st7" d="M1504.3,933.4c3.5-6.8,12.1-8.4,19.6-8.9c25.6-1.8,51.5-0.1,76.7,5.1c-20.9,17-44.1,34.8-70.6,33.9
				c-12-0.4-24.5-4.7-35.8-0.3c-2.6-8.2-1.2-17.7,3.8-24.6L1504.3,933.4z"/>
			<path class="st7" d="M1208,1245.3c26.2,21.4,118.4-7.2,75.4-34.8c-7-4.5-15.3-5.8-23.4-7.1c-10.9-1.7-22-3.4-32.8-1.1
				s-21.3,9.5-24.5,20.4C1199.6,1233.1,1202.1,1240.5,1208,1245.3z"/>
			<path class="st7" d="M2347.4,1056.9c16.2,14.7,38.8,18.3,60.1,21.3c10.6,1.5,24.6,1.1,28.2-9.3c3.9-11-8.6-21.2-19.9-22.4
				c-11.3-1.3-23.2,1.8-33.6-2.8c-9.2-4.1-16.5-13.8-26.6-13.7c-11.7,0.1-18.8,17.8-10.6,26.4L2347.4,1056.9z"/>
		</g>
	</g>
	<g>
		<g>
			<g>
				
					<linearGradient id="SVGID_6_" gradientUnits="userSpaceOnUse" x1="1754.0806" y1="1860.5082" x2="1869.5304" y2="2553.2092" gradientTransform="matrix(1 0 0 -1 0 2800.0066)">
					<stop  offset="0" style="stop-color:#FE7062"/>
					<stop  offset="1" style="stop-color:#FF928E"/>
				</linearGradient>
				<circle class="st9" cx="1813.5" cy="583.2" r="234"/>
				
					<linearGradient id="SVGID_7_" gradientUnits="userSpaceOnUse" x1="1753.7007" y1="1860.571" x2="1869.1504" y2="2553.2722" gradientTransform="matrix(1 0 0 -1 0 2800.0066)">
					<stop  offset="0" style="stop-color:#FE7062"/>
					<stop  offset="1" style="stop-color:#FF928E"/>
				</linearGradient>
				<path class="st10" d="M2047,567h-233.5h-234c0,0-18.6,131.7,190.2,487.4c9.1,15.5,25.8,25.7,43.8,25.7s34.7-10.5,43.8-26
					C2066,698.4,2047,567,2047,567z"/>
			</g>
			<g>
				
					<linearGradient id="SVGID_8_" gradientUnits="userSpaceOnUse" x1="2148.4595" y1="2713.0767" x2="1590.9106" y2="1799.7902" gradientTransform="matrix(1 0 0 -1 0 2800.0066)">
					<stop  offset="0" style="stop-color:#E1473D"/>
					<stop  offset="1" style="stop-color:#E9605A"/>
				</linearGradient>
				<path class="st11" d="M1819.6,1088.6v1.3h-6.2c-20.4,0-39.4-11.2-49.6-28.6C1641.7,853.4,1597,721.9,1581,648.4
					c-4.6-16.9-7.2-33.5-8-50.5c-1.4-17.4-0.3-24.7-0.2-25.5l0.6-3.7c9.4-125.7,114-223.5,240-223.5c127.7,0,233.2,99.2,240.4,225.9
					c0.2,1.7,0.5,5.9,0.4,12.9v0.9c0,23-3.2,45.7-9.6,67.7c-16.6,73.5-58.5,203.7-178.4,408.1
					C1855.8,1078,1836.6,1088.6,1819.6,1088.6z M1585.9,580.6c-0.1,0,0.1,8.8,0.7,16.4v0.1c0.8,16.1,3.3,31.7,7.6,47.8l0.1,0.3
					c15.8,72.6,60,202.4,181.3,408.9c7.8,13.3,25.4,21.6,41,21.6l3.1,6.8v-6.8c6.8,0,27.9-8.3,35.8-21.7
					c119.2-203.1,164.5-332.2,178.1-404.7v-0.4c6.8-20.7,8-42.3,8-64l-1.2-1v-0.1c0-6.8-0.1-10.4-0.2-11.4V572
					c-6.6-119.6-106.2-213.2-226.8-213.2c-120.3,0-219.9,94.7-226.8,215.3l-0.3,6.6L1585.9,580.6L1585.9,580.6z"/>
			</g>
			
				<ellipse transform="matrix(0.7071 -0.7071 0.7071 0.7071 119.4619 1453.4216)" class="st12" cx="1814.2" cy="582.5" rx="135.1" ry="135.1"/>
			<g>
				
					<linearGradient id="SVGID_9_" gradientUnits="userSpaceOnUse" x1="2172.1448" y1="2614.6196" x2="1515.4" y2="1886.0446" gradientTransform="matrix(1 0 0 -1 0 2800.0066)">
					<stop  offset="0" style="stop-color:#E1473D"/>
					<stop  offset="1" style="stop-color:#E9605A"/>
				</linearGradient>
				<path class="st13" d="M1814.2,725.1c-78.7,0-142.6-64-142.6-142.6s64-142.6,142.6-142.6s142.6,64,142.6,142.6
					S1892.9,725.1,1814.2,725.1z M1814.2,454.9c-70.3,0-127.5,57.2-127.5,127.5s57.2,127.5,127.5,127.5s127.5-57.2,127.5-127.5
					C1941.8,512.1,1884.5,454.9,1814.2,454.9z"/>
			</g>
		</g>
		<g>
			<path class="st14" d="M1686.1,441.8c-0.6,0-1.3-0.3-1.7-0.8c-0.8-0.9-0.7-2.4,0.2-3.2c38-32.6,86.4-50.5,136.5-50.5
				c1.3,0,2.3,1,2.3,2.3s-1,2.3-2.3,2.3c-49,0-96.4,17.6-133.6,49.4C1687.1,441.6,1686.6,441.8,1686.1,441.8z"/>
		</g>
		<g>
			<path class="st14" d="M1613.7,599.2c-1.3,0-2.3-1-2.3-2.3c0-39.1,10.8-77.3,31.4-110.4c0.7-1.1,2.1-1.4,3.1-0.7
				c1.1,0.7,1.4,2.1,0.7,3.1c-20.1,32.4-30.7,69.7-30.7,108C1616,598.2,1615,599.2,1613.7,599.2z"/>
		</g>
	</g>
	<g>
		<g>
			
				<linearGradient id="SVGID_10_" gradientUnits="userSpaceOnUse" x1="1089.5171" y1="1207.1926" x2="1097.119" y2="1341.4948" gradientTransform="matrix(1 0 0 -1 0 2800.0066)">
				<stop  offset="0" style="stop-color:#09005D"/>
				<stop  offset="1" style="stop-color:#1A0F91"/>
			</linearGradient>
			<path class="st15" d="M991.1,1429.6c-1.1,2-67.6,51-67.6,51s14.7,105.2,74.4,146.7c65.6,45.7,158.3-37.6,158.3-37.6
				s73.8,17.5,113-136c9-35.2-42.9-38.2-105.6-31.7C1082.7,1430.3,991.1,1429.6,991.1,1429.6z"/>
			
				<linearGradient id="SVGID_11_" gradientUnits="userSpaceOnUse" x1="1193.7083" y1="930.685" x2="684.3701" y2="-176.2783" gradientTransform="matrix(1 0 0 -1 0 2800.0066)">
				<stop  offset="0" style="stop-color:#FE7062"/>
				<stop  offset="1" style="stop-color:#FF928E"/>
			</linearGradient>
			<path class="st16" d="M866.7,1788.3c26-17.9,54.8-31.4,85.3-39.7c11.5-3.1,73.4,14.9,111.6,14c52.5-1.2,106-25.1,149.3-14.3
				c43,10.7,78.2,24.7,98.5,39.2c60.8,43.3,96.5,123.9,118.3,203.9c-41.2,42.3-93.1,61.1-93.1,61.1l-9.6,388.4l-229.7,117.5
				l-262.2-131.6l9.4-379.6c0,0-83.3-38.8-89.4-52.9C749.2,1980.2,793.2,1838.8,866.7,1788.3z"/>
			
				<linearGradient id="SVGID_12_" gradientUnits="userSpaceOnUse" x1="702.1364" y1="890.58" x2="1138.611" y2="-163.7616" gradientTransform="matrix(1 0 0 -1 0 2800.0066)">
				<stop  offset="0" style="stop-color:#FEBBBA"/>
				<stop  offset="1" style="stop-color:#FF928E"/>
			</linearGradient>
			<path class="st17" d="M759.2,1992.6c0,0-111.6,309.3,142.8,436.4c52.8-7,32.5-94.7,32.5-94.7s-110.5-24.5-77.3-282.5
				C826.6,2026.6,759.2,1992.6,759.2,1992.6z"/>
			
				<linearGradient id="SVGID_13_" gradientUnits="userSpaceOnUse" x1="-3627.2644" y1="892.8436" x2="-3190.7898" y2="-161.498" gradientTransform="matrix(-1 0 0 -1 -2151.3486 2800.0066)">
				<stop  offset="0" style="stop-color:#FEBBBA"/>
				<stop  offset="1" style="stop-color:#FF928E"/>
			</linearGradient>
			<path class="st18" d="M1424.4,1992.6c0,0,76.8,322.9-142.8,436.4c-52.8-7-32.5-94.7-32.5-94.7s89.1-43.9,77.3-282.5
				C1357,2026.6,1424.4,1992.6,1424.4,1992.6z"/>
			
				<linearGradient id="SVGID_14_" gradientUnits="userSpaceOnUse" x1="1089.8708" y1="754.6592" x2="1067.1495" y2="-165.5737" gradientTransform="matrix(1 0 0 -1 0 2800.0066)">
				<stop  offset="0" style="stop-color:#09005D"/>
				<stop  offset="1" style="stop-color:#1A0F91"/>
			</linearGradient>
			<path class="st19" d="M1331.9,2450.7H836.3c-2.2,0-4.1-1.8-4.1-4.1v-332c0-2.2,1.8-4.1,4.1-4.1h495.6c2.2,0,4.1,1.8,4.1,4.1v332
				C1335.9,2448.9,1334.1,2450.7,1331.9,2450.7z"/>
			<g>
				
					<linearGradient id="SVGID_15_" gradientUnits="userSpaceOnUse" x1="1354.3622" y1="220.9375" x2="1592.8805" y2="220.9375" gradientTransform="matrix(1 7.700000e-03 7.700000e-03 -1 -4.3353 2809.0598)">
					<stop  offset="0" style="stop-color:#09005D"/>
					<stop  offset="1" style="stop-color:#1A0F91"/>
				</linearGradient>
				<path class="st20" d="M1556.8,2551.5c-57.6-13.2-190.9-6.1-190.9-6.1l-5.4,14.7l-9,72.9c0,0,126.9,22.9,189.4,22.8
					c6.4,0,12.2-1,17.5-2.6c1.9-1.7,3.8-3.5,5.5-5.4C1590.6,2618.8,1582.9,2576.3,1556.8,2551.5z"/>
				
					<linearGradient id="SVGID_16_" gradientUnits="userSpaceOnUse" x1="1715.2821" y1="2727.8381" x2="1538.709" y2="-491.1828" gradientTransform="matrix(1 7.700000e-03 7.700000e-03 -1 -4.3353 2809.0598)">
					<stop  offset="0" style="stop-color:#4042E2"/>
					<stop  offset="1" style="stop-color:#4F52FF"/>
				</linearGradient>
				<path class="st21" d="M1562.6,2553c-1.8-0.5-3.7-1-5.7-1.4c26.1,24.7,33.8,67.3,7.2,96.3c-1.8,1.9-3.6,3.7-5.5,5.4
					C1605.5,2638.6,1611,2566.6,1562.6,2553z"/>
				
					<linearGradient id="SVGID_17_" gradientUnits="userSpaceOnUse" x1="1509.2476" y1="631.4694" x2="1257.4756" y2="-50.4827" gradientTransform="matrix(1 0 0 -1 0 2800.0066)">
					<stop  offset="0" style="stop-color:#FEBBBA"/>
					<stop  offset="1" style="stop-color:#FF928E"/>
				</linearGradient>
				<path class="st22" d="M1327.7,2541.3l22.6,1c12.1,0.5,23.5,6.4,31.7,16.4s12.3,23.1,11.6,36.6c-0.6,10.7-5,20.7-12.2,27.8
					s-16.7,10.7-26.4,10l-34.5-2.5L1327.7,2541.3z"/>
			</g>
			<g>
				
					<linearGradient id="SVGID_18_" gradientUnits="userSpaceOnUse" x1="-3603.2781" y1="243.7383" x2="-3364.6594" y2="243.7383" gradientTransform="matrix(-0.9998 -2.000000e-02 2.000000e-02 -0.9998 -2834.4722 2768.9644)">
					<stop  offset="0" style="stop-color:#09005D"/>
					<stop  offset="1" style="stop-color:#1A0F91"/>
				</linearGradient>
				<path class="st23" d="M569.1,2544.5c58-11.5,190.9-0.3,190.9-0.3l5.1,14.8l7.2,73.2c0,0-127.4,19-189.9,17
					c-6.4-0.2-12.2-1.3-17.5-3.2c-1.9-1.8-3.7-3.6-5.4-5.6C533.7,2610.8,542.4,2568.5,569.1,2544.5z"/>
				
					<linearGradient id="SVGID_19_" gradientUnits="userSpaceOnUse" x1="-3225.636" y1="3054.332" x2="-3402.2092" y2="-164.6913" gradientTransform="matrix(-0.9998 -2.000000e-02 2.000000e-02 -0.9998 -2834.4722 2768.9644)">
					<stop  offset="0" style="stop-color:#4042E2"/>
					<stop  offset="1" style="stop-color:#4F52FF"/>
				</linearGradient>
				<path class="st24" d="M563.4,2545.8c1.8-0.5,3.7-0.9,5.7-1.3c-26.7,23.9-35.4,66.2-9.6,96c1.7,2,3.5,3.8,5.4,5.6
					C518.4,2630.1,514.6,2557.9,563.4,2545.8z"/>
				
					<linearGradient id="SVGID_20_" gradientUnits="userSpaceOnUse" x1="1004.8286" y1="836.9719" x2="752.924" y2="154.6608" gradientTransform="matrix(1 0 0 -1 0 2800.0066)">
					<stop  offset="0" style="stop-color:#FEBBBA"/>
					<stop  offset="1" style="stop-color:#FF928E"/>
				</linearGradient>
				<path class="st25" d="M798.5,2541.3l-22.6,0.3c-12.1,0.1-23.7,5.7-32.1,15.4s-12.9,22.8-12.5,36.2c0.3,10.7,4.4,20.9,11.5,28.2
					s16.5,11.2,26.1,10.8l34.6-1.4L798.5,2541.3z"/>
			</g>
			
				<linearGradient id="SVGID_21_" gradientUnits="userSpaceOnUse" x1="1185.2822" y1="345.3244" x2="662.3608" y2="-849.9232" gradientTransform="matrix(1 0 0 -1 0 2800.0066)">
				<stop  offset="0" style="stop-color:#4042E2"/>
				<stop  offset="1" style="stop-color:#4F52FF"/>
			</linearGradient>
			<path class="st26" d="M1573,2322.9c-26.1-60.2-90.1-69.9-144.5-41.8c-0.9,1.2-345.6,177.9-649.5,255.3
				c8.7,27.9,13.2,57.6,14.2,86.7c0.2,6.5,0.1,12.9-0.3,19.2c233.1-12,486-89.7,703.4-158C1563.6,2462.6,1601.9,2389.6,1573,2322.9z
				"/>
			
				<linearGradient id="SVGID_22_" gradientUnits="userSpaceOnUse" x1="1265.3365" y1="1408.7657" x2="959.7337" y2="308.5949" gradientTransform="matrix(1 0 0 -1 0 2800.0066)">
				<stop  offset="0" style="stop-color:#4042E2"/>
				<stop  offset="1" style="stop-color:#4F52FF"/>
			</linearGradient>
			<path class="st27" d="M1329.4,2627.7c-0.9-33.6,5.6-64.9,19.6-93.9c0.4-1.3,0.9-2.6,1.3-3.9c-17.4-5.4-39.8-12.7-69.2-22.6
				c-215.8-73.9-380.5-148.4-537.6-234.3c-61-33.4-130.5-11-150,61.2c-17.4,64.5,20.9,119.5,79,138.9
				c173.9,57.9,83.4,41.8,140.2,60.1c152.6,47.2,342.4,90.1,517.1,101.9C1329.6,2632.6,1329.4,2630.1,1329.4,2627.7z"/>
			
				<linearGradient id="SVGID_23_" gradientUnits="userSpaceOnUse" x1="1085.2635" y1="803.5268" x2="1079.4559" y2="1308.8206" gradientTransform="matrix(1 0 0 -1 0 2800.0066)">
				<stop  offset="0" style="stop-color:#FEBBBA"/>
				<stop  offset="1" style="stop-color:#FF928E"/>
			</linearGradient>
			<path class="st28" d="M952,1748.6c0,0,23.2,100.6,135.9,98.5c114.8-2.1,125-98.8,125-98.8l-75-16l-6.3-83.5l-112.7,8.2l-2.1,79.4
				L952,1748.6z"/>
			
				<linearGradient id="SVGID_24_" gradientUnits="userSpaceOnUse" x1="1000.082" y1="1435.2549" x2="1018.1732" y2="1874.9486" gradientTransform="matrix(0.987 0.1608 0.1608 -0.987 -149.3546 2971.7871)">
				<stop  offset="0" style="stop-color:#FEBBBA"/>
				<stop  offset="1" style="stop-color:#FF928E"/>
			</linearGradient>
			<path class="st29" d="M1034.8,1412c0,0-129.2,250.4,24.1,311.1c108.1,42.8,175.9-166.3,155.7-222.9
				c-31.3-87.6-51.9-77.2-51.9-77.2L1034.8,1412z"/>
			
				<linearGradient id="SVGID_25_" gradientUnits="userSpaceOnUse" x1="1164.5431" y1="1623.6116" x2="1113.2294" y2="1420.2579" gradientTransform="matrix(1 0 0 -1 0 2800.0066)">
				<stop  offset="0" style="stop-color:#09005D"/>
				<stop  offset="1" style="stop-color:#1A0F91"/>
			</linearGradient>
			<path class="st30" d="M1245.6,1389.2c63.8,17.5,9.3,156-86.8,123.3c-96.1-32.7-133.9-32.3-148.9-5.9
				c-15,26.4-18.2,120.1-50.7,73.8c-35.6-50.8-55.5-152.8-11.8-185.6c39-29.4,48.2-74.9,95-73.3c62.2,2.1,110.2-25.5,138.3-5.6
				C1212.9,1338.7,1198.7,1376.3,1245.6,1389.2z"/>
			
				<linearGradient id="SVGID_26_" gradientUnits="userSpaceOnUse" x1="904.0329" y1="815.5351" x2="932.3834" y2="1504.5768" gradientTransform="matrix(0.9911 -0.1329 -0.1329 -0.9911 222.165 2701.6694)">
				<stop  offset="0" style="stop-color:#FEBBBA"/>
				<stop  offset="1" style="stop-color:#FF928E"/>
			</linearGradient>
			<path class="st31" d="M1004,1528.1c0,0-27.6-29.7-32,6.1c-4.4,35.7,9.8,81.8,26.3,56.5C1015,1565.6,1004,1528.1,1004,1528.1z"/>
		</g>
		<path class="st32" d="M1113.8,2202.7c2.7,18-7,34.4-25,37.1c-18,2.7-34.8-9.8-37.5-27.8s5.6-36,23.6-38.6
			C1092.9,2170.6,1111.1,2184.6,1113.8,2202.7z"/>
	</g>
	<g>
		
			<linearGradient id="SVGID_27_" gradientUnits="userSpaceOnUse" x1="535.8746" y1="2195.7886" x2="916.1796" y2="1666.0776" gradientTransform="matrix(1 0 0 -1 0 2800.0066)">
			<stop  offset="0" style="stop-color:#4042E2"/>
			<stop  offset="1" style="stop-color:#4F52FF"/>
		</linearGradient>
		<path class="st33" d="M736.8,354.8l42,151.3c5.7,20.5,2.2,42.5-9.6,60.3c-29.6,44.6-102,125.1-255.5,166.2
			c-155.9,41.7-244.2-1.2-282.2-29.5c-13.8-10.2-23.7-24.7-28.5-41.2l-46-160.3L736.8,354.8z"/>
		
			<linearGradient id="SVGID_28_" gradientUnits="userSpaceOnUse" x1="461.8348" y1="2981.0315" x2="427.8785" y2="2342.6597" gradientTransform="matrix(1 0 0 -1 0 2800.0066)">
			<stop  offset="0" style="stop-color:#4042E2"/>
			<stop  offset="1" style="stop-color:#4F52FF"/>
		</linearGradient>
		<path class="st34" d="M404.4,160l436.7,122.3c22.5,6.3,28.9,35.1,11.1,50.3c-86.6,74-283.3,246.5-357.8,346.6
			c-8,10.7-22.2,14.6-34.5,9.5L18.1,505.8c-20-8.3-24.4-34.6-8.1-48.9c85.7-75.3,303.9-263.7,374.8-295.5
			C390.9,158.7,397.9,158.2,404.4,160z"/>
		
			<linearGradient id="SVGID_29_" gradientUnits="userSpaceOnUse" x1="-3449.0857" y1="1930.0737" x2="-3850.1475" y2="784.1801" gradientTransform="matrix(1 0 0 -1 3618.4697 2800.0066)">
			<stop  offset="0" style="stop-color:#4042E2"/>
			<stop  offset="1" style="stop-color:#4F52FF"/>
		</linearGradient>
		<path class="st35" d="M413.9,385.6c0,0-232.8,146.8-250.5,180.4c-17.7,33.5,18,186.1,18,186.1c-36.6,129.1-42.1,269.2,19.8,342.6
			c0,0,76.3-169.7,42.2-241.3c-34.1-71.5-47.2-100.9-47.2-100.9s-29.8-162.6-20.4-185.8C175.7,566.6,433.6,394.9,413.9,385.6z"/>
		<path class="st7" d="M782.3,322.8L558.9,543.3L503,598.4l-14,13.8l-7,6.9c-2.2,2.1-4.6,4-7.2,5.6c-10.4,6.4-23.7,7.9-35.3,3.8
			l-148.8-49.9c-1.2-0.4-2.4,0.2-2.8,1.4c-0.4,1.2,0.2,2.4,1.4,2.8l148.4,51c13.1,4.7,28.3,3.1,40.2-4.1c3-1.8,5.8-3.9,8.3-6.3
			l7.1-6.8l14.1-13.7l56.3-54.7l225.1-218.7c1.8-1.8,1.9-4.7,0.1-6.5C787.1,321.1,784.2,321,782.3,322.8L782.3,322.8z"/>
		<path class="st7" d="M198.4,830.5l0.4,0.5l0.5,0.6l1,1.2l2,2.7c1.3,1.8,2.5,3.8,3.8,5.7l3.3,6.1c1,2.1,1.9,4.2,2.9,6.3
			c1,2.1,1.8,4.3,2.6,6.5s1.6,4.4,2.4,6.6l1.9,6.8c0.6,2.3,1.4,4.5,1.7,6.9l1.4,7c0.4,2.3,1,4.6,1.2,7c0.6,4.7,1.2,9.4,1.7,14.1
			l0.7,14.3c0,1.2,0.1,2.4,0.1,3.6l-0.1,3.6l-0.2,7.2c0.1,9.6-1.2,19.1-2,28.6c-0.2,2.4-0.5,4.8-0.9,7.1l-1.1,7.1
			c-0.8,4.7-1.4,9.5-2.3,14.2c-2.1,9.4-4,18.8-6.3,28.1l-7.8,27.8v0.1c-0.2,0.9,0.3,1.7,1.1,2c0.8,0.2,1.7-0.2,2-1.1l8.6-27.7
			c2.5-9.3,4.7-18.8,7.1-28.2c1-4.7,1.8-9.5,2.7-14.3l1.3-7.2c0.5-2.4,0.9-4.8,1.1-7.2c1-9.7,2.6-19.3,2.8-29.1l0.4-7.3l0.2-3.7
			c0-1.2,0-2.4-0.1-3.7l-0.3-14.7c-0.4-4.9-0.9-9.8-1.4-14.6c-0.2-2.5-0.7-4.9-1.1-7.3l-1.3-7.3c-0.3-2.4-1-4.8-1.6-7.2l-1.8-7.2
			c-0.7-2.4-1.5-4.7-2.3-7.1s-1.5-4.7-2.6-7c-1-2.3-1.9-4.6-2.9-6.9l-3.4-6.7c-1.3-2.2-2.5-4.4-4-6.5l-2.2-3.2l-1.2-1.6l-0.6-0.8
			l-0.8-0.9c-1.7-1.9-4.6-2-6.5-0.3s-2,4.6-0.3,6.5c0,0,0,0,0.1,0.1L198.4,830.5z"/>
		<path class="st7" d="M191.2,890.5v9.1l-0.1,10.2l-0.3,20.5l-0.7,41.1l-1.7,82.2c0,1.4,1.1,2.5,2.5,2.6c1.4,0,2.5-1,2.6-2.4
			l3.8-82.1l1.8-41.1l0.8-20.6l0.3-10.3l0.1-5.2l0.1-2.6c0-1.1-0.1-2.5-0.2-3.7c-0.2-2.5-2.4-4.3-4.9-4.1c-2.3,0.2-4.1,2.2-4.1,4.5
			L191.2,890.5z"/>
	</g>
	<g>
		<g>
			<path class="st32" d="M2356.2,2017.6c0,0-23.9-148.9,49.2-197.1c3.3-2.1,7.6,0.3,7.6,4.2v28.3c0,6.8,8.1,10.3,13,5.6
				c15.7-14.8,43.9-37.4,73.8-42.1c8-1.3,14.2,6.7,10.8,14c-18.3,39.2-66.3,148.9-64.4,220.8L2356.2,2017.6z"/>
			
				<linearGradient id="SVGID_30_" gradientUnits="userSpaceOnUse" x1="2396.6047" y1="417.4405" x2="2349.0671" y2="-560.4858" gradientTransform="matrix(1 0 0 -1 0 2800.0066)">
				<stop  offset="0" style="stop-color:#4042E2"/>
				<stop  offset="1" style="stop-color:#4F52FF"/>
			</linearGradient>
			<path class="st36" d="M2278.6,2017.5l-48.9,782.5H2523v-760.6c0-21.9-14-41.3-34.7-48.3c-38.8-13.3-104.8-29.8-169.6-18.3
				C2296.6,1976.7,2280,1995.1,2278.6,2017.5z"/>
			<path class="st32" d="M2279.4,2510.3l-9.9,218.2c-0.8,18.1,13.6,33.2,31.7,33.2h148.2c17.5,0,31.7-14.2,31.7-31.7v-218.2
				c0-17.5-14.2-31.7-31.7-31.7h-138.2C2294.1,2480,2280.2,2493.4,2279.4,2510.3z"/>
		</g>
		<g>
			
				<linearGradient id="SVGID_31_" gradientUnits="userSpaceOnUse" x1="3697.9126" y1="2473.9531" x2="3236.1138" y2="1543.5635" gradientTransform="matrix(1 0 0 -1 0 2800.0066)">
				<stop  offset="0" style="stop-color:#09005D"/>
				<stop  offset="1" style="stop-color:#1A0F91"/>
			</linearGradient>
			<path class="st37" d="M2805.4,2800v-808.8c0-20.2-13.1-38.2-32.4-44c-86.4-26.4-161.5-11.6-200.9,0.6
				c-17.5,5.4-29.4,21.5-29.4,39.8V2800H2805.4z"/>
			
				<linearGradient id="SVGID_32_" gradientUnits="userSpaceOnUse" x1="2774.7229" y1="942.6549" x2="2605.9451" y2="610.82" gradientTransform="matrix(1 0 0 -1 0 2800.0066)">
				<stop  offset="0" style="stop-color:#4042E2"/>
				<stop  offset="1" style="stop-color:#4F52FF"/>
			</linearGradient>
			<path class="st38" d="M2568.7,2004.7l6.4,119.4c0.8,14.9,13.1,26.5,28,26.5h140.7c15.1,0,27.5-12,28-27.1l3.8-117.8
				c0.4-13.5-8.8-25.4-22-28.3c-34.2-7.4-101.4-17.5-163.6-1.4C2576.9,1979.3,2567.9,1991.2,2568.7,2004.7z"/>
			
				<linearGradient id="SVGID_33_" gradientUnits="userSpaceOnUse" x1="2833.9307" y1="912.543" x2="2665.1514" y2="580.7054" gradientTransform="matrix(1 0 0 -1 0 2800.0066)">
				<stop  offset="0" style="stop-color:#4042E2"/>
				<stop  offset="1" style="stop-color:#4F52FF"/>
			</linearGradient>
			<path class="st39" d="M2579.6,2202.1L2579.6,2202.1c1,14.7,13.2,26.1,28,26.1h134.7c15.7,0,28.3-12.9,28-28.6l0,0
				c-0.3-15.3-12.8-27.5-28-27.5h-134.7C2591.3,2172.1,2578.5,2185.9,2579.6,2202.1z"/>
		</g>
		<g>
			
				<linearGradient id="SVGID_34_" gradientUnits="userSpaceOnUse" x1="2592.2266" y1="1317.0795" x2="1485.2634" y2="-611.6166" gradientTransform="matrix(1 0 0 -1 0 2800.0066)">
				<stop  offset="0" style="stop-color:#4042E2"/>
				<stop  offset="1" style="stop-color:#4F52FF"/>
			</linearGradient>
			<path class="st40" d="M1911.3,2013.7l32.5,785.5h277.8l21.1-794.3c0.6-21.8-13.4-41.6-34.3-47.9
				c-90.3-27.1-180.1-29.8-268.7,10.7C1921.8,1976,1910.5,1994.1,1911.3,2013.7z"/>
			<path class="st32" d="M1936.6,2043.2l3.3,42.7c1,12.9,12.2,22.7,25.1,21.9l227-13.2c11.9-0.7,21.5-10.1,22.4-22l2.2-29.5
				c1-13.8-9.9-25.6-23.8-25.6h-232.5C1946.5,2017.6,1935.6,2029.4,1936.6,2043.2z"/>
			<path class="st32" d="M1946,2145.3v15.6c0,12,10,21.6,22,21.1l217.4-9.1c11.3-0.5,20.3-9.8,20.3-21.1v-16.5
				c0-12.1-10.1-21.7-22.1-21.1l-217.4,10C1954.9,2124.7,1946,2134,1946,2145.3z"/>
		</g>
	</g>
</g>
</svg>
